<?xml version="1.0" standalone="no"?>
<!DOCTYPE svg PUBLIC "-//W3C//DTD SVG 20010904//EN"
 "http://www.w3.org/TR/2001/REC-SVG-20010904/DTD/svg10.dtd">
<svg version="1.0" xmlns="http://www.w3.org/2000/svg"
 width="852.000000pt" height="2100.000000pt" viewBox="0 0 852.000000 2100.000000"
 preserveAspectRatio="xMidYMid meet">

<g transform="translate(0.000000,2100.000000) scale(0.100000,-0.100000)"
fill="#000000" stroke="none">
<path d="M4138 20697 c-16 -6 -28 -14 -28 -19 0 -4 -6 -8 -14 -8 -18 0 -70
-60 -95 -108 -34 -66 -78 -224 -132 -467 -7 -27 -17 -70 -24 -95 -7 -25 -18
-65 -24 -90 -18 -80 -99 -403 -116 -465 -9 -33 -27 -100 -40 -150 -13 -49 -38
-139 -55 -200 -18 -60 -40 -139 -50 -175 -45 -158 -85 -293 -172 -570 -37
-117 -212 -643 -232 -696 -8 -21 -35 -97 -61 -169 -25 -71 -50 -139 -55 -150
-4 -11 -18 -47 -30 -80 -12 -33 -32 -87 -45 -120 -102 -264 -129 -334 -141
-360 -7 -16 -29 -70 -48 -120 -19 -49 -44 -112 -56 -140 -12 -27 -26 -60 -31
-72 -5 -13 -13 -33 -18 -45 -45 -108 -206 -489 -217 -513 -7 -16 -28 -66 -47
-110 -31 -74 -348 -670 -403 -756 -13 -21 -24 -41 -24 -45 0 -3 -17 -36 -39
-72 -21 -37 -49 -85 -61 -107 -45 -81 -255 -442 -292 -503 -21 -34 -38 -65
-38 -67 0 -3 -11 -24 -26 -46 -14 -22 -33 -55 -43 -72 -10 -18 -71 -122 -136
-232 -65 -110 -152 -258 -193 -330 -41 -71 -86 -147 -99 -167 -12 -21 -23 -40
-23 -43 0 -3 -10 -22 -23 -43 -13 -20 -37 -62 -54 -92 -16 -30 -40 -73 -53
-95 -83 -145 -340 -659 -340 -679 0 -3 -13 -34 -30 -69 -16 -36 -30 -68 -30
-72 0 -4 -6 -21 -14 -38 -60 -131 -156 -424 -217 -667 -40 -157 -84 -435 -114
-716 -20 -192 -20 -680 0 -818 8 -55 20 -137 26 -181 6 -44 18 -109 26 -145 7
-36 18 -85 23 -110 48 -226 149 -525 257 -760 232 -506 545 -936 933 -1283
170 -153 215 -190 325 -272 44 -33 82 -62 85 -65 12 -13 292 -194 352 -229 18
-10 65 -36 103 -58 39 -22 137 -73 218 -112 741 -359 1512 -495 2262 -400 202
25 494 91 690 155 201 66 375 138 595 248 147 74 217 113 393 221 41 25 188
126 222 152 6 5 48 37 95 73 266 202 553 484 733 719 15 20 35 45 45 56 9 11
66 94 127 185 138 207 256 430 375 705 23 52 100 268 119 330 89 301 125 486
161 827 27 264 -6 851 -65 1138 -8 36 -19 94 -26 130 -11 65 -54 246 -82 350
-26 97 -106 327 -158 458 -139 346 -259 583 -606 1202 -11 19 -70 120 -132
223 -61 104 -111 190 -111 191 0 2 -29 52 -65 111 -36 59 -65 108 -65 110 0 1
-38 66 -85 144 -47 79 -85 145 -85 148 0 3 -8 17 -19 31 -10 15 -29 47 -43 72
-14 25 -80 142 -148 260 -68 118 -134 235 -148 260 -14 25 -42 76 -63 113 -22
38 -39 70 -39 72 0 2 -13 26 -28 52 -16 27 -55 98 -87 158 -31 61 -65 124 -75
140 -38 64 -113 212 -132 259 -10 27 -27 68 -38 90 -18 40 -65 151 -193 456
-134 319 -321 792 -408 1033 -22 62 -44 121 -49 132 -4 11 -14 36 -20 55 -6
19 -45 132 -87 250 -41 118 -87 256 -103 305 -15 50 -41 131 -58 180 -30 89
-81 253 -103 330 -7 22 -18 59 -25 81 -11 34 -83 288 -124 434 -5 19 -21 73
-34 120 -35 120 -162 616 -211 825 -106 453 -132 535 -193 606 -65 76 -188
110 -274 76z m112 -1163 c0 -14 19 -88 122 -464 87 -320 92 -339 138 -495 47
-158 141 -462 170 -545 10 -30 25 -77 34 -105 47 -155 307 -887 366 -1030 4
-11 14 -36 20 -55 7 -19 19 -48 25 -65 7 -16 48 -118 91 -225 110 -278 240
-592 290 -705 7 -16 47 -111 89 -210 42 -99 80 -184 85 -190 4 -5 39 -71 78
-147 39 -75 91 -172 116 -217 25 -44 46 -83 46 -85 0 -3 14 -28 30 -56 17 -28
60 -106 97 -173 102 -187 115 -211 123 -222 4 -5 21 -35 38 -65 17 -30 60
-106 96 -169 36 -62 66 -115 66 -118 0 -2 17 -32 38 -66 40 -63 164 -274 200
-337 11 -19 57 -98 102 -175 46 -77 97 -165 115 -195 615 -1043 829 -1527 954
-2158 48 -242 66 -391 82 -695 20 -357 -9 -642 -102 -1003 -75 -294 -223 -657
-359 -878 -22 -37 -40 -69 -40 -72 0 -14 -250 -369 -270 -384 -4 -3 -31 -34
-62 -70 -172 -204 -488 -486 -713 -635 -33 -22 -62 -43 -65 -46 -3 -3 -63 -41
-135 -84 -159 -96 -333 -185 -485 -248 -63 -27 -124 -53 -135 -58 -48 -22
-301 -100 -420 -129 -195 -48 -296 -64 -520 -85 -202 -18 -287 -18 -505 0
-223 19 -312 32 -485 69 -140 31 -413 110 -500 146 -11 4 -58 23 -105 41 -212
81 -541 255 -745 394 -281 191 -466 349 -711 606 -162 170 -352 436 -475 664
-65 120 -169 341 -169 359 0 6 -4 16 -8 22 -8 8 -53 128 -87 229 -42 125 -79
270 -105 410 -7 33 -16 78 -21 101 -50 230 -50 823 1 1124 5 30 14 89 20 130
48 305 161 704 265 935 7 17 22 53 33 80 71 179 270 569 457 895 134 233 183
317 209 358 14 23 26 44 26 46 0 3 13 26 29 53 50 84 175 295 221 373 24 41
55 95 70 120 15 25 46 79 70 120 24 41 63 108 87 148 24 40 43 74 43 76 0 2
30 55 66 117 73 125 141 246 199 354 21 39 46 84 55 100 10 17 29 51 43 76 13
25 29 54 35 65 157 286 234 437 291 573 29 69 62 145 73 170 32 73 44 100 83
196 20 50 43 104 51 120 35 78 254 627 335 840 17 44 34 89 39 100 18 43 112
303 181 500 58 167 190 569 229 695 17 58 35 116 40 130 5 14 21 66 35 115 14
50 40 135 56 190 16 55 34 116 39 135 5 19 21 73 34 120 28 97 55 196 97 360
25 98 40 152 65 229 3 11 7 11 19 1 8 -7 15 -19 15 -26z"/>
<path d="M4090 11954 c-200 -22 -337 -62 -515 -150 -422 -208 -714 -603 -800
-1079 -17 -94 -20 -378 -5 -457 27 -139 33 -167 53 -228 161 -507 577 -885
1108 -1005 49 -12 139 -19 265 -22 217 -6 322 9 510 72 215 72 386 178 560
350 173 172 263 308 354 540 63 159 95 375 87 570 -27 597 -394 1104 -957
1320 -76 30 -119 42 -268 76 -46 10 -333 20 -392 13z"/>
</g>
</svg>
